<?xml version="1.0" encoding="UTF-8" standalone="no"?><svg xmlns="http://www.w3.org/2000/svg" xmlns:xlink="http://www.w3.org/1999/xlink" contentScriptType="application/ecmascript" contentStyleType="text/css" height="413px" preserveAspectRatio="none" style="width:1383px;height:413px;" version="1.1" viewBox="0 0 1383 413" width="1383px" zoomAndPan="magnify"><defs><filter height="300%" id="fz4qazx28mj55" width="300%" x="-1" y="-1"><feGaussianBlur result="blurOut" stdDeviation="2.0"/><feColorMatrix in="blurOut" result="blurOut2" type="matrix" values="0 0 0 0 0 0 0 0 0 0 0 0 0 0 0 0 0 0 .4 0"/><feOffset dx="4.0" dy="4.0" in="blurOut2" result="blurOut3"/><feBlend in="SourceGraphic" in2="blurOut3" mode="normal"/></filter></defs><g><!--cluster com.adrenalinici.adrenaline.client--><polygon fill="#FFFFFF" filter="url(#fz4qazx28mj55)" points="14,16,284,16,291,38.2969,334,38.2969,334,401,14,401,14,16" style="stroke: #000000; stroke-width: 1.5;"/><line style="stroke: #000000; stroke-width: 1.5;" x1="14" x2="291" y1="38.2969" y2="38.2969"/><text fill="#000000" font-family="sans-serif" font-size="14" font-weight="bold" lengthAdjust="spacingAndGlyphs" textLength="264" x="18" y="30.9951">com.adrenalinici.adrenaline.client</text><!--cluster com.adrenalinici.adrenaline.client.rmi--><polygon fill="#FFFFFF" filter="url(#fz4qazx28mj55)" points="352,41.5,652,41.5,659,63.7969,1010,63.7969,1010,175.5,352,175.5,352,41.5" style="stroke: #000000; stroke-width: 1.5;"/><line style="stroke: #000000; stroke-width: 1.5;" x1="352" x2="659" y1="63.7969" y2="63.7969"/><text fill="#000000" font-family="sans-serif" font-size="14" font-weight="bold" lengthAdjust="spacingAndGlyphs" textLength="294" x="356" y="56.4951">com.adrenalinici.adrenaline.client.rmi</text><!--cluster com.adrenalinici.adrenaline.client.socket--><polygon fill="#FFFFFF" filter="url(#fz4qazx28mj55)" points="1023,22,1351,22,1358,44.2969,1361,44.2969,1361,195,1023,195,1023,22" style="stroke: #000000; stroke-width: 1.5;"/><line style="stroke: #000000; stroke-width: 1.5;" x1="1023" x2="1358" y1="44.2969" y2="44.2969"/><text fill="#000000" font-family="sans-serif" font-size="14" font-weight="bold" lengthAdjust="spacingAndGlyphs" textLength="322" x="1027" y="36.9951">com.adrenalinici.adrenaline.client.socket</text><!--class ClientNetworkAdapter--><rect fill="#FEFECE" filter="url(#fz4qazx28mj55)" height="150.4375" id="ClientNetworkAdapter" style="stroke: #A80036; stroke-width: 1.5;" width="303" x="22.5" y="43"/><ellipse cx="101.25" cy="59" fill="#A9DCDF" rx="11" ry="11" style="stroke: #A80036; stroke-width: 1.0;"/><path d="M101.3594,54.3438 L100.2031,59.4219 L102.5313,59.4219 L101.3594,54.3438 Z M99.875,52.1094 L102.8594,52.1094 L106.2188,64.5 L103.7656,64.5 L103,61.4375 L99.7188,61.4375 L98.9688,64.5 L96.5313,64.5 L99.875,52.1094 Z "/><text fill="#000000" font-family="sans-serif" font-size="12" font-style="italic" lengthAdjust="spacingAndGlyphs" textLength="137" x="121.75" y="63.1543">ClientNetworkAdapter</text><line style="stroke: #A80036; stroke-width: 1.5;" x1="23.5" x2="324.5" y1="75" y2="75"/><text fill="#000000" font-family="sans-serif" font-size="11" lengthAdjust="spacingAndGlyphs" textLength="291" x="28.5" y="89.2104">clientViewOutbox : BlockingQueue&lt;InboxMessage&gt;</text><text fill="#000000" font-family="sans-serif" font-size="11" lengthAdjust="spacingAndGlyphs" textLength="291" x="28.5" y="102.0151">clientViewInbox : BlockingQueue&lt;OutboxMessage&gt;</text><text fill="#000000" font-family="sans-serif" font-size="11" lengthAdjust="spacingAndGlyphs" textLength="132" x="28.5" y="114.8198">proxy : ClientViewProxy</text><line style="stroke: #A80036; stroke-width: 1.5;" x1="23.5" x2="324.5" y1="121.4141" y2="121.4141"/><text fill="#000000" font-family="sans-serif" font-size="11" lengthAdjust="spacingAndGlyphs" textLength="53" x="28.5" y="135.6245">initialize()</text><text fill="#000000" font-family="sans-serif" font-size="11" lengthAdjust="spacingAndGlyphs" textLength="134" x="28.5" y="148.4292">onEvent(InboxMessage)</text><text fill="#000000" font-family="sans-serif" font-size="11" lengthAdjust="spacingAndGlyphs" textLength="89" x="28.5" y="161.2339">onEvent(Object)</text><text fill="#000000" font-family="sans-serif" font-size="11" lengthAdjust="spacingAndGlyphs" textLength="27" x="28.5" y="174.0386">run()</text><text fill="#000000" font-family="sans-serif" font-size="11" lengthAdjust="spacingAndGlyphs" textLength="33" x="28.5" y="186.8433">stop()</text><!--class ClientViewProxy--><rect fill="#FEFECE" filter="url(#fz4qazx28mj55)" height="60.8047" id="ClientViewProxy" style="stroke: #A80036; stroke-width: 1.5;" width="262" x="43" y="332"/><ellipse cx="120.75" cy="348" fill="#B4A7E5" rx="11" ry="11" style="stroke: #A80036; stroke-width: 1.0;"/><path d="M116.6719,343.7656 L116.6719,341.6094 L124.0625,341.6094 L124.0625,343.7656 L121.5938,343.7656 L121.5938,351.8438 L124.0625,351.8438 L124.0625,354 L116.6719,354 L116.6719,351.8438 L119.1406,351.8438 L119.1406,343.7656 L116.6719,343.7656 Z "/><text fill="#000000" font-family="sans-serif" font-size="12" font-style="italic" lengthAdjust="spacingAndGlyphs" textLength="98" x="141.25" y="352.1543">ClientViewProxy</text><line style="stroke: #A80036; stroke-width: 1.5;" x1="44" x2="304" y1="364" y2="364"/><line style="stroke: #A80036; stroke-width: 1.5;" x1="44" x2="304" y1="372" y2="372"/><text fill="#000000" font-family="sans-serif" font-size="11" lengthAdjust="spacingAndGlyphs" textLength="250" x="49" y="386.2104">handleNewServerMessage(OutboxMessage)</text><!--class GameRmiClientImpl--><rect fill="#FEFECE" filter="url(#fz4qazx28mj55)" height="73.6094" id="GameRmiClientImpl" style="stroke: #A80036; stroke-width: 1.5;" width="303" x="698.5" y="81"/><ellipse cx="786.75" cy="97" fill="#ADD1B2" rx="11" ry="11" style="stroke: #A80036; stroke-width: 1.0;"/><path d="M789.7188,102.6406 Q789.1406,102.9375 788.5,103.0859 Q787.8594,103.2344 787.1563,103.2344 Q784.6563,103.2344 783.3359,101.5859 Q782.0156,99.9375 782.0156,96.8125 Q782.0156,93.6875 783.3359,92.0313 Q784.6563,90.375 787.1563,90.375 Q787.8594,90.375 788.5078,90.5313 Q789.1563,90.6875 789.7188,90.9844 L789.7188,93.7031 Q789.0938,93.125 788.5,92.8516 Q787.9063,92.5781 787.2813,92.5781 Q785.9375,92.5781 785.25,93.6484 Q784.5625,94.7188 784.5625,96.8125 Q784.5625,98.9063 785.25,99.9766 Q785.9375,101.0469 787.2813,101.0469 Q787.9063,101.0469 788.5,100.7734 Q789.0938,100.5 789.7188,99.9219 L789.7188,102.6406 Z "/><text fill="#000000" font-family="sans-serif" font-size="12" lengthAdjust="spacingAndGlyphs" textLength="118" x="807.25" y="101.1543">GameRmiClientImpl</text><line style="stroke: #A80036; stroke-width: 1.5;" x1="699.5" x2="1000.5" y1="113" y2="113"/><text fill="#000000" font-family="sans-serif" font-size="11" lengthAdjust="spacingAndGlyphs" textLength="291" x="704.5" y="127.2104">clientViewInbox : BlockingQueue&lt;OutboxMessage&gt;</text><line style="stroke: #A80036; stroke-width: 1.5;" x1="699.5" x2="1000.5" y1="133.8047" y2="133.8047"/><text fill="#000000" font-family="sans-serif" font-size="11" lengthAdjust="spacingAndGlyphs" textLength="187" x="704.5" y="148.0151">acceptMessage(OutboxMessage)</text><!--class SenderRunnable--><rect fill="#FEFECE" filter="url(#fz4qazx28mj55)" height="99.2188" id="SenderRunnable" style="stroke: #A80036; stroke-width: 1.5;" width="303" x="360.5" y="68.5"/><ellipse cx="455.75" cy="84.5" fill="#ADD1B2" rx="11" ry="11" style="stroke: #A80036; stroke-width: 1.0;"/><path d="M458.7188,90.1406 Q458.1406,90.4375 457.5,90.5859 Q456.8594,90.7344 456.1563,90.7344 Q453.6563,90.7344 452.3359,89.0859 Q451.0156,87.4375 451.0156,84.3125 Q451.0156,81.1875 452.3359,79.5313 Q453.6563,77.875 456.1563,77.875 Q456.8594,77.875 457.5078,78.0313 Q458.1563,78.1875 458.7188,78.4844 L458.7188,81.2031 Q458.0938,80.625 457.5,80.3516 Q456.9063,80.0781 456.2813,80.0781 Q454.9375,80.0781 454.25,81.1484 Q453.5625,82.2188 453.5625,84.3125 Q453.5625,86.4063 454.25,87.4766 Q454.9375,88.5469 456.2813,88.5469 Q456.9063,88.5469 457.5,88.2734 Q458.0938,88 458.7188,87.4219 L458.7188,90.1406 Z "/><text fill="#000000" font-family="sans-serif" font-size="12" lengthAdjust="spacingAndGlyphs" textLength="104" x="476.25" y="88.6543">SenderRunnable</text><line style="stroke: #A80036; stroke-width: 1.5;" x1="361.5" x2="662.5" y1="100.5" y2="100.5"/><text fill="#000000" font-family="sans-serif" font-size="11" lengthAdjust="spacingAndGlyphs" textLength="291" x="366.5" y="114.7104">clientViewOutbox : BlockingQueue&lt;InboxMessage&gt;</text><text fill="#000000" font-family="sans-serif" font-size="11" lengthAdjust="spacingAndGlyphs" textLength="162" x="366.5" y="127.5151">rmiServer : GameRmiServer</text><text fill="#000000" font-family="sans-serif" font-size="11" lengthAdjust="spacingAndGlyphs" textLength="150" x="366.5" y="140.3198">rmiClient : GameRmiClient</text><line style="stroke: #A80036; stroke-width: 1.5;" x1="361.5" x2="662.5" y1="146.9141" y2="146.9141"/><text fill="#000000" font-family="sans-serif" font-size="11" lengthAdjust="spacingAndGlyphs" textLength="27" x="366.5" y="161.1245">run()</text><!--class SocketEventLoopRunnable--><rect fill="#FEFECE" filter="url(#fz4qazx28mj55)" height="137.6328" id="SocketEventLoopRunnable" style="stroke: #A80036; stroke-width: 1.5;" width="303" x="1042.5" y="49"/><ellipse cx="1106.25" cy="65" fill="#ADD1B2" rx="11" ry="11" style="stroke: #A80036; stroke-width: 1.0;"/><path d="M1109.2188,70.6406 Q1108.6406,70.9375 1108,71.0859 Q1107.3594,71.2344 1106.6563,71.2344 Q1104.1563,71.2344 1102.8359,69.5859 Q1101.5156,67.9375 1101.5156,64.8125 Q1101.5156,61.6875 1102.8359,60.0313 Q1104.1563,58.375 1106.6563,58.375 Q1107.3594,58.375 1108.0078,58.5313 Q1108.6563,58.6875 1109.2188,58.9844 L1109.2188,61.7031 Q1108.5938,61.125 1108,60.8516 Q1107.4063,60.5781 1106.7813,60.5781 Q1105.4375,60.5781 1104.75,61.6484 Q1104.0625,62.7188 1104.0625,64.8125 Q1104.0625,66.9063 1104.75,67.9766 Q1105.4375,69.0469 1106.7813,69.0469 Q1107.4063,69.0469 1108,68.7734 Q1108.5938,68.5 1109.2188,67.9219 L1109.2188,70.6406 Z "/><text fill="#000000" font-family="sans-serif" font-size="12" lengthAdjust="spacingAndGlyphs" textLength="167" x="1126.75" y="69.1543">SocketEventLoopRunnable</text><line style="stroke: #A80036; stroke-width: 1.5;" x1="1043.5" x2="1344.5" y1="81" y2="81"/><text fill="#000000" font-family="sans-serif" font-size="11" lengthAdjust="spacingAndGlyphs" textLength="105" x="1048.5" y="95.2104">selector : Selector</text><text fill="#000000" font-family="sans-serif" font-size="11" lengthAdjust="spacingAndGlyphs" textLength="291" x="1048.5" y="108.0151">clientViewInbox : BlockingQueue&lt;OutboxMessage&gt;</text><text fill="#000000" font-family="sans-serif" font-size="11" lengthAdjust="spacingAndGlyphs" textLength="291" x="1048.5" y="120.8198">clientViewOutbox : BlockingQueue&lt;InboxMessage&gt;</text><text fill="#000000" font-family="sans-serif" font-size="11" lengthAdjust="spacingAndGlyphs" textLength="219" x="1048.5" y="133.6245">remainingWrites : Queue&lt;ByteBuffer&gt;</text><text fill="#000000" font-family="sans-serif" font-size="11" lengthAdjust="spacingAndGlyphs" textLength="157" x="1048.5" y="146.4292">remainingRead : ByteBuffer</text><text fill="#000000" font-family="sans-serif" font-size="11" lengthAdjust="spacingAndGlyphs" textLength="131" x="1048.5" y="159.2339">keepAliveTimer : Timer</text><line style="stroke: #A80036; stroke-width: 1.5;" x1="1043.5" x2="1344.5" y1="165.8281" y2="165.8281"/><text fill="#000000" font-family="sans-serif" font-size="11" lengthAdjust="spacingAndGlyphs" textLength="27" x="1048.5" y="180.0386">run()</text><!--link ClientNetworkAdapter to ClientViewProxy--><path d="M174,193.0197 C174,237.5733 174,292.017 174,326.9679 " fill="none" id="ClientNetworkAdapter-ClientViewProxy" style="stroke: #A80036; stroke-width: 1.0;"/><polygon fill="#A80036" points="174,331.9796,178,322.9796,174,326.9796,170,322.9796,174,331.9796" style="stroke: #A80036; stroke-width: 1.0;"/><text fill="#000000" font-family="sans-serif" font-size="13" lengthAdjust="spacingAndGlyphs" textLength="35" x="175" y="267.0669">proxy</text><!--
@startuml

package com.adrenalinici.adrenaline.client <<Folder>> {
  abstract class "ClientNetworkAdapter"
  interface "ClientViewProxy"
}

package com.adrenalinici.adrenaline.client.rmi <<Folder>> {
  class "GameRmiClientImpl"
  class "SenderRunnable"
}

package com.adrenalinici.adrenaline.client.socket <<Folder>> {
  class "SocketEventLoopRunnable"
}

abstract class "ClientNetworkAdapter" {
  clientViewOutbox : BlockingQueue<InboxMessage>
  clientViewInbox : BlockingQueue<OutboxMessage>
  proxy : ClientViewProxy
  initialize()
  onEvent(InboxMessage)
  onEvent(Object)
  run()
  stop()
}

interface "ClientViewProxy" {
  handleNewServerMessage(OutboxMessage)
}

class "GameRmiClientImpl" {
  clientViewInbox : BlockingQueue<OutboxMessage>
  acceptMessage(OutboxMessage)
}

class "SenderRunnable" {
  clientViewOutbox : BlockingQueue<InboxMessage>
  rmiServer : GameRmiServer
  rmiClient : GameRmiClient
  run()
}

class "SocketEventLoopRunnable" {
  selector : Selector
  clientViewInbox : BlockingQueue<OutboxMessage>
  clientViewOutbox : BlockingQueue<InboxMessage>
  remainingWrites : Queue<ByteBuffer>
  remainingRead : ByteBuffer
  keepAliveTimer : Timer
  run()
}

"ClientNetworkAdapter" - -> "ClientViewProxy" : proxy

@enduml

PlantUML version 1.2019.06(Fri May 24 19:10:25 CEST 2019)
(GPL source distribution)
Java Runtime: OpenJDK Runtime Environment
JVM: OpenJDK 64-Bit Server VM
Java Version: 1.8.0_212-b04
Operating System: Linux
OS Version: 5.1.9-300.fc30.x86_64
Default Encoding: UTF-8
Language: en
Country: US
--></g></svg>