<?xml version="1.0" encoding="UTF-8" standalone="no"?><svg xmlns="http://www.w3.org/2000/svg" xmlns:xlink="http://www.w3.org/1999/xlink" contentScriptType="application/ecmascript" contentStyleType="text/css" height="1091px" preserveAspectRatio="none" style="width:1495px;height:1091px;" version="1.1" viewBox="0 0 1495 1091" width="1495px" zoomAndPan="magnify"><defs><filter height="300%" id="fwkneyogcdta4" width="300%" x="-1" y="-1"><feGaussianBlur result="blurOut" stdDeviation="2.0"/><feColorMatrix in="blurOut" result="blurOut2" type="matrix" values="0 0 0 0 0 0 0 0 0 0 0 0 0 0 0 0 0 0 .4 0"/><feOffset dx="4.0" dy="4.0" in="blurOut2" result="blurOut3"/><feBlend in="SourceGraphic" in2="blurOut3" mode="normal"/></filter></defs><g><!--cluster com.adrenalinici.adrenaline.gui--><polygon fill="#FFFFFF" filter="url(#fwkneyogcdta4)" points="1149,733,1400,733,1407,755.2969,1473,755.2969,1473,880,1149,880,1149,733" style="stroke: #000000; stroke-width: 1.5;"/><line style="stroke: #000000; stroke-width: 1.5;" x1="1149" x2="1407" y1="755.2969" y2="755.2969"/><text fill="#000000" font-family="sans-serif" font-size="14" font-weight="bold" lengthAdjust="spacingAndGlyphs" textLength="245" x="1153" y="747.9951">com.adrenalinici.adrenaline.gui</text><!--cluster com.adrenalinici.adrenaline.gui.controller--><polygon fill="#FFFFFF" filter="url(#fwkneyogcdta4)" points="14,16,347,16,354,38.2969,1141,38.2969,1141,1079,14,1079,14,16" style="stroke: #000000; stroke-width: 1.5;"/><line style="stroke: #000000; stroke-width: 1.5;" x1="14" x2="354" y1="38.2969" y2="38.2969"/><text fill="#000000" font-family="sans-serif" font-size="14" font-weight="bold" lengthAdjust="spacingAndGlyphs" textLength="327" x="18" y="30.9951">com.adrenalinici.adrenaline.gui.controller</text><!--class GuiUtils--><rect fill="#FEFECE" filter="url(#fwkneyogcdta4)" height="48" id="GuiUtils" style="stroke: #A80036; stroke-width: 1.5;" width="79" x="1385.5" y="792"/><ellipse cx="1400.5" cy="808" fill="#ADD1B2" rx="11" ry="11" style="stroke: #A80036; stroke-width: 1.0;"/><path d="M1403.4688,813.6406 Q1402.8906,813.9375 1402.25,814.0859 Q1401.6094,814.2344 1400.9063,814.2344 Q1398.4063,814.2344 1397.0859,812.5859 Q1395.7656,810.9375 1395.7656,807.8125 Q1395.7656,804.6875 1397.0859,803.0313 Q1398.4063,801.375 1400.9063,801.375 Q1401.6094,801.375 1402.2578,801.5313 Q1402.9063,801.6875 1403.4688,801.9844 L1403.4688,804.7031 Q1402.8438,804.125 1402.25,803.8516 Q1401.6563,803.5781 1401.0313,803.5781 Q1399.6875,803.5781 1399,804.6484 Q1398.3125,805.7188 1398.3125,807.8125 Q1398.3125,809.9063 1399,810.9766 Q1399.6875,812.0469 1401.0313,812.0469 Q1401.6563,812.0469 1402.25,811.7734 Q1402.8438,811.5 1403.4688,810.9219 L1403.4688,813.6406 Z "/><text fill="#000000" font-family="sans-serif" font-size="12" lengthAdjust="spacingAndGlyphs" textLength="47" x="1414.5" y="812.1543">GuiUtils</text><line style="stroke: #A80036; stroke-width: 1.5;" x1="1386.5" x2="1463.5" y1="824" y2="824"/><line style="stroke: #A80036; stroke-width: 1.5;" x1="1386.5" x2="1463.5" y1="832" y2="832"/><!--class GuiView--><rect fill="#FEFECE" filter="url(#fwkneyogcdta4)" height="112.0234" id="GuiView" style="stroke: #A80036; stroke-width: 1.5;" width="193" x="1157.5" y="760"/><ellipse cx="1225.75" cy="776" fill="#ADD1B2" rx="11" ry="11" style="stroke: #A80036; stroke-width: 1.0;"/><path d="M1228.7188,781.6406 Q1228.1406,781.9375 1227.5,782.0859 Q1226.8594,782.2344 1226.1563,782.2344 Q1223.6563,782.2344 1222.3359,780.5859 Q1221.0156,778.9375 1221.0156,775.8125 Q1221.0156,772.6875 1222.3359,771.0313 Q1223.6563,769.375 1226.1563,769.375 Q1226.8594,769.375 1227.5078,769.5313 Q1228.1563,769.6875 1228.7188,769.9844 L1228.7188,772.7031 Q1228.0938,772.125 1227.5,771.8516 Q1226.9063,771.5781 1226.2813,771.5781 Q1224.9375,771.5781 1224.25,772.6484 Q1223.5625,773.7188 1223.5625,775.8125 Q1223.5625,777.9063 1224.25,778.9766 Q1224.9375,780.0469 1226.2813,780.0469 Q1226.9063,780.0469 1227.5,779.7734 Q1228.0938,779.5 1228.7188,778.9219 L1228.7188,781.6406 Z "/><text fill="#000000" font-family="sans-serif" font-size="12" lengthAdjust="spacingAndGlyphs" textLength="48" x="1246.25" y="780.1543">GuiView</text><line style="stroke: #A80036; stroke-width: 1.5;" x1="1158.5" x2="1349.5" y1="792" y2="792"/><text fill="#000000" font-family="sans-serif" font-size="11" lengthAdjust="spacingAndGlyphs" textLength="144" x="1163.5" y="806.2104">eventBus : ViewEventBus</text><text fill="#000000" font-family="sans-serif" font-size="11" lengthAdjust="spacingAndGlyphs" textLength="181" x="1163.5" y="819.0151">networkAdapterThread : Thread</text><text fill="#000000" font-family="sans-serif" font-size="11" lengthAdjust="spacingAndGlyphs" textLength="178" x="1163.5" y="831.8198">adapter : ClientNetworkAdapter</text><line style="stroke: #A80036; stroke-width: 1.5;" x1="1158.5" x2="1349.5" y1="838.4141" y2="838.4141"/><text fill="#000000" font-family="sans-serif" font-size="11" lengthAdjust="spacingAndGlyphs" textLength="125" x="1163.5" y="852.6245">startNetworkAdapter()</text><text fill="#000000" font-family="sans-serif" font-size="11" lengthAdjust="spacingAndGlyphs" textLength="123" x="1163.5" y="865.4292">stopNetworkAdapter()</text><!--class ConnectMatchController--><rect fill="#FEFECE" filter="url(#fwkneyogcdta4)" height="214.4609" id="ConnectMatchController" style="stroke: #A80036; stroke-width: 1.5;" width="258" x="875" y="43"/><ellipse cx="924.25" cy="59" fill="#ADD1B2" rx="11" ry="11" style="stroke: #A80036; stroke-width: 1.0;"/><path d="M927.2188,64.6406 Q926.6406,64.9375 926,65.0859 Q925.3594,65.2344 924.6563,65.2344 Q922.1563,65.2344 920.8359,63.5859 Q919.5156,61.9375 919.5156,58.8125 Q919.5156,55.6875 920.8359,54.0313 Q922.1563,52.375 924.6563,52.375 Q925.3594,52.375 926.0078,52.5313 Q926.6563,52.6875 927.2188,52.9844 L927.2188,55.7031 Q926.5938,55.125 926,54.8516 Q925.4063,54.5781 924.7813,54.5781 Q923.4375,54.5781 922.75,55.6484 Q922.0625,56.7188 922.0625,58.8125 Q922.0625,60.9063 922.75,61.9766 Q923.4375,63.0469 924.7813,63.0469 Q925.4063,63.0469 926,62.7734 Q926.5938,62.5 927.2188,61.9219 L927.2188,64.6406 Z "/><text fill="#000000" font-family="sans-serif" font-size="12" lengthAdjust="spacingAndGlyphs" textLength="151" x="944.75" y="63.1543">ConnectMatchController</text><line style="stroke: #A80036; stroke-width: 1.5;" x1="876" x2="1132" y1="75" y2="75"/><text fill="#000000" font-family="sans-serif" font-size="11" lengthAdjust="spacingAndGlyphs" textLength="109" x="881" y="89.2104">portText : TextField</text><text fill="#000000" font-family="sans-serif" font-size="11" lengthAdjust="spacingAndGlyphs" textLength="111" x="881" y="102.0151">hostText : TextField</text><text fill="#000000" font-family="sans-serif" font-size="11" lengthAdjust="spacingAndGlyphs" textLength="123" x="881" y="114.8198">socketButton : Button</text><text fill="#000000" font-family="sans-serif" font-size="11" lengthAdjust="spacingAndGlyphs" textLength="105" x="881" y="127.6245">rmiButton : Button</text><text fill="#000000" font-family="sans-serif" font-size="11" lengthAdjust="spacingAndGlyphs" textLength="205" x="881" y="140.4292">matchesListView : ListView&lt;String&gt;</text><text fill="#000000" font-family="sans-serif" font-size="11" lengthAdjust="spacingAndGlyphs" textLength="142" x="881" y="153.2339">newMatchButton : Button</text><text fill="#000000" font-family="sans-serif" font-size="11" lengthAdjust="spacingAndGlyphs" textLength="82" x="881" y="166.0386">view : GuiView</text><text fill="#000000" font-family="sans-serif" font-size="11" lengthAdjust="spacingAndGlyphs" textLength="246" x="881" y="178.8433">matches : Map&lt;String, Set&lt;PlayerColor&gt;&gt;</text><text fill="#000000" font-family="sans-serif" font-size="11" lengthAdjust="spacingAndGlyphs" textLength="149" x="881" y="191.6479">registeredHandler : String</text><text fill="#000000" font-family="sans-serif" font-size="11" lengthAdjust="spacingAndGlyphs" textLength="159" x="881" y="204.4526">startingNewMatch : Boolean</text><line style="stroke: #A80036; stroke-width: 1.5;" x1="876" x2="1132" y1="211.0469" y2="211.0469"/><text fill="#000000" font-family="sans-serif" font-size="11" lengthAdjust="spacingAndGlyphs" textLength="53" x="881" y="225.2573">initialize()</text><text fill="#000000" font-family="sans-serif" font-size="11" lengthAdjust="spacingAndGlyphs" textLength="176" x="881" y="238.062">onConnectClicked(MouseEvent)</text><text fill="#000000" font-family="sans-serif" font-size="11" lengthAdjust="spacingAndGlyphs" textLength="215" x="881" y="250.8667">onStartNewMatchClicked(MouseEvent)</text><!--class DashboardCellController--><rect fill="#FEFECE" filter="url(#fwkneyogcdta4)" height="99.2188" id="DashboardCellController" style="stroke: #A80036; stroke-width: 1.5;" width="184" x="656" y="100.5"/><ellipse cx="671" cy="116.5" fill="#ADD1B2" rx="11" ry="11" style="stroke: #A80036; stroke-width: 1.0;"/><path d="M673.9688,122.1406 Q673.3906,122.4375 672.75,122.5859 Q672.1094,122.7344 671.4063,122.7344 Q668.9063,122.7344 667.5859,121.0859 Q666.2656,119.4375 666.2656,116.3125 Q666.2656,113.1875 667.5859,111.5313 Q668.9063,109.875 671.4063,109.875 Q672.1094,109.875 672.7578,110.0313 Q673.4063,110.1875 673.9688,110.4844 L673.9688,113.2031 Q673.3438,112.625 672.75,112.3516 Q672.1563,112.0781 671.5313,112.0781 Q670.1875,112.0781 669.5,113.1484 Q668.8125,114.2188 668.8125,116.3125 Q668.8125,118.4063 669.5,119.4766 Q670.1875,120.5469 671.5313,120.5469 Q672.1563,120.5469 672.75,120.2734 Q673.3438,120 673.9688,119.4219 L673.9688,122.1406 Z "/><text fill="#000000" font-family="sans-serif" font-size="12" lengthAdjust="spacingAndGlyphs" textLength="152" x="685" y="120.6543">DashboardCellController</text><line style="stroke: #A80036; stroke-width: 1.5;" x1="657" x2="839" y1="132.5" y2="132.5"/><text fill="#000000" font-family="sans-serif" font-size="11" lengthAdjust="spacingAndGlyphs" textLength="87" x="662" y="146.7104">position : Label</text><text fill="#000000" font-family="sans-serif" font-size="11" lengthAdjust="spacingAndGlyphs" textLength="83" x="662" y="159.5151">players : HBox</text><text fill="#000000" font-family="sans-serif" font-size="11" lengthAdjust="spacingAndGlyphs" textLength="84" x="662" y="172.3198">content : Label</text><line style="stroke: #A80036; stroke-width: 1.5;" x1="657" x2="839" y1="178.9141" y2="178.9141"/><text fill="#000000" font-family="sans-serif" font-size="11" lengthAdjust="spacingAndGlyphs" textLength="53" x="662" y="193.1245">initialize()</text><!--class DashboardGamePaneController--><rect fill="#FEFECE" filter="url(#fwkneyogcdta4)" height="214.4609" id="DashboardGamePaneController" style="stroke: #A80036; stroke-width: 1.5;" width="271" x="816.5" y="438"/><ellipse cx="849.95" cy="454" fill="#ADD1B2" rx="11" ry="11" style="stroke: #A80036; stroke-width: 1.0;"/><path d="M852.9188,459.6406 Q852.3406,459.9375 851.7,460.0859 Q851.0594,460.2344 850.3563,460.2344 Q847.8563,460.2344 846.5359,458.5859 Q845.2156,456.9375 845.2156,453.8125 Q845.2156,450.6875 846.5359,449.0313 Q847.8563,447.375 850.3563,447.375 Q851.0594,447.375 851.7078,447.5313 Q852.3563,447.6875 852.9188,447.9844 L852.9188,450.7031 Q852.2938,450.125 851.7,449.8516 Q851.1063,449.5781 850.4813,449.5781 Q849.1375,449.5781 848.45,450.6484 Q847.7625,451.7188 847.7625,453.8125 Q847.7625,455.9063 848.45,456.9766 Q849.1375,458.0469 850.4813,458.0469 Q851.1063,458.0469 851.7,457.7734 Q852.2938,457.5 852.9188,456.9219 L852.9188,459.6406 Z "/><text fill="#000000" font-family="sans-serif" font-size="12" lengthAdjust="spacingAndGlyphs" textLength="198" x="868.05" y="458.1543">DashboardGamePaneController</text><line style="stroke: #A80036; stroke-width: 1.5;" x1="817.5" x2="1086.5" y1="470" y2="470"/><text fill="#000000" font-family="sans-serif" font-size="11" lengthAdjust="spacingAndGlyphs" textLength="177" x="822.5" y="484.2104">dashboardGridPane : GridPane</text><text fill="#000000" font-family="sans-serif" font-size="11" lengthAdjust="spacingAndGlyphs" textLength="163" x="822.5" y="497.0151">remainingSkullsLabel : Label</text><text fill="#000000" font-family="sans-serif" font-size="11" lengthAdjust="spacingAndGlyphs" textLength="133" x="822.5" y="509.8198">playerTurnLabel : Label</text><text fill="#000000" font-family="sans-serif" font-size="11" lengthAdjust="spacingAndGlyphs" textLength="136" x="822.5" y="522.6245">frenzyModeLabel : Label</text><text fill="#000000" font-family="sans-serif" font-size="11" lengthAdjust="spacingAndGlyphs" textLength="159" x="822.5" y="535.4292">playersKillTrackHBox : HBox</text><text fill="#000000" font-family="sans-serif" font-size="11" lengthAdjust="spacingAndGlyphs" textLength="249" x="822.5" y="548.2339">cellControllers : DashboardCellController[][]</text><line style="stroke: #A80036; stroke-width: 1.5;" x1="817.5" x2="1086.5" y1="554.8281" y2="554.8281"/><text fill="#000000" font-family="sans-serif" font-size="11" lengthAdjust="spacingAndGlyphs" textLength="53" x="822.5" y="569.0386">initialize()</text><text fill="#000000" font-family="sans-serif" font-size="11" lengthAdjust="spacingAndGlyphs" textLength="179" x="822.5" y="581.8433">initializeView(DashboardChoice)</text><text fill="#000000" font-family="sans-serif" font-size="11" lengthAdjust="spacingAndGlyphs" textLength="246" x="822.5" y="594.6479">initializeView(LightGameModel, PlayerColor)</text><text fill="#000000" font-family="sans-serif" font-size="11" lengthAdjust="spacingAndGlyphs" textLength="187" x="822.5" y="607.4526">showGameInfo(LightGameModel)</text><text fill="#000000" font-family="sans-serif" font-size="11" lengthAdjust="spacingAndGlyphs" textLength="229" x="822.5" y="620.2573">updateCell(DashboardCellUpdatedEvent)</text><text fill="#000000" font-family="sans-serif" font-size="11" lengthAdjust="spacingAndGlyphs" textLength="259" x="822.5" y="633.062">updateGameModel(GameModelUpdatedEvent)</text><text fill="#000000" font-family="sans-serif" font-size="11" lengthAdjust="spacingAndGlyphs" textLength="186" x="822.5" y="645.8667">updateTurnOfPlayer(PlayerColor)</text><!--class MainGamePaneController--><rect fill="#FEFECE" filter="url(#fwkneyogcdta4)" height="163.2422" id="MainGamePaneController" style="stroke: #A80036; stroke-width: 1.5;" width="344" x="277" y="68.5"/><ellipse cx="365.75" cy="84.5" fill="#ADD1B2" rx="11" ry="11" style="stroke: #A80036; stroke-width: 1.0;"/><path d="M368.7188,90.1406 Q368.1406,90.4375 367.5,90.5859 Q366.8594,90.7344 366.1563,90.7344 Q363.6563,90.7344 362.3359,89.0859 Q361.0156,87.4375 361.0156,84.3125 Q361.0156,81.1875 362.3359,79.5313 Q363.6563,77.875 366.1563,77.875 Q366.8594,77.875 367.5078,78.0313 Q368.1563,78.1875 368.7188,78.4844 L368.7188,81.2031 Q368.0938,80.625 367.5,80.3516 Q366.9063,80.0781 366.2813,80.0781 Q364.9375,80.0781 364.25,81.1484 Q363.5625,82.2188 363.5625,84.3125 Q363.5625,86.4063 364.25,87.4766 Q364.9375,88.5469 366.2813,88.5469 Q366.9063,88.5469 367.5,88.2734 Q368.0938,88 368.7188,87.4219 L368.7188,90.1406 Z "/><text fill="#000000" font-family="sans-serif" font-size="12" lengthAdjust="spacingAndGlyphs" textLength="158" x="386.25" y="88.6543">MainGamePaneController</text><line style="stroke: #A80036; stroke-width: 1.5;" x1="278" x2="620" y1="100.5" y2="100.5"/><text fill="#000000" font-family="sans-serif" font-size="11" lengthAdjust="spacingAndGlyphs" textLength="309" x="283" y="114.7104">dashboardController : DashboardGamePaneController</text><text fill="#000000" font-family="sans-serif" font-size="11" lengthAdjust="spacingAndGlyphs" textLength="294" x="283" y="127.5151">thisPlayerController : MyStatusGamePaneController</text><text fill="#000000" font-family="sans-serif" font-size="11" lengthAdjust="spacingAndGlyphs" textLength="332" x="283" y="140.3198">otherPlayersController : OtherPlayersGamePaneController</text><text fill="#000000" font-family="sans-serif" font-size="11" lengthAdjust="spacingAndGlyphs" textLength="82" x="283" y="153.1245">view : GuiView</text><text fill="#000000" font-family="sans-serif" font-size="11" lengthAdjust="spacingAndGlyphs" textLength="149" x="283" y="165.9292">registeredHandler : String</text><text fill="#000000" font-family="sans-serif" font-size="11" lengthAdjust="spacingAndGlyphs" textLength="120" x="283" y="178.7339">firstUpdate : boolean</text><text fill="#000000" font-family="sans-serif" font-size="11" lengthAdjust="spacingAndGlyphs" textLength="124" x="283" y="191.5386">openedDialog : Dialog</text><line style="stroke: #A80036; stroke-width: 1.5;" x1="278" x2="620" y1="198.1328" y2="198.1328"/><text fill="#000000" font-family="sans-serif" font-size="11" lengthAdjust="spacingAndGlyphs" textLength="53" x="283" y="212.3433">initialize()</text><text fill="#000000" font-family="sans-serif" font-size="11" lengthAdjust="spacingAndGlyphs" textLength="35" x="283" y="225.1479">start()</text><!--class MyStatusGamePaneController--><rect fill="#FEFECE" filter="url(#fwkneyogcdta4)" height="265.6797" id="MyStatusGamePaneController" style="stroke: #A80036; stroke-width: 1.5;" width="258" x="523" y="412"/><ellipse cx="556" cy="428" fill="#ADD1B2" rx="11" ry="11" style="stroke: #A80036; stroke-width: 1.0;"/><path d="M558.9688,433.6406 Q558.3906,433.9375 557.75,434.0859 Q557.1094,434.2344 556.4063,434.2344 Q553.9063,434.2344 552.5859,432.5859 Q551.2656,430.9375 551.2656,427.8125 Q551.2656,424.6875 552.5859,423.0313 Q553.9063,421.375 556.4063,421.375 Q557.1094,421.375 557.7578,421.5313 Q558.4063,421.6875 558.9688,421.9844 L558.9688,424.7031 Q558.3438,424.125 557.75,423.8516 Q557.1563,423.5781 556.5313,423.5781 Q555.1875,423.5781 554.5,424.6484 Q553.8125,425.7188 553.8125,427.8125 Q553.8125,429.9063 554.5,430.9766 Q555.1875,432.0469 556.5313,432.0469 Q557.1563,432.0469 557.75,431.7734 Q558.3438,431.5 558.9688,430.9219 L558.9688,433.6406 Z "/><text fill="#000000" font-family="sans-serif" font-size="12" lengthAdjust="spacingAndGlyphs" textLength="186" x="574" y="432.1543">MyStatusGamePaneController</text><line style="stroke: #A80036; stroke-width: 1.5;" x1="524" x2="780" y1="444" y2="444"/><text fill="#000000" font-family="sans-serif" font-size="11" lengthAdjust="spacingAndGlyphs" textLength="137" x="529" y="458.2104">playerColorLabel : Label</text><text fill="#000000" font-family="sans-serif" font-size="11" lengthAdjust="spacingAndGlyphs" textLength="141" x="529" y="471.0151">damagesGrid : GridPane</text><text fill="#000000" font-family="sans-serif" font-size="11" lengthAdjust="spacingAndGlyphs" textLength="124" x="529" y="483.8198">marksGrid : GridPane</text><text fill="#000000" font-family="sans-serif" font-size="11" lengthAdjust="spacingAndGlyphs" textLength="107" x="529" y="496.6245">pointsLabel : Label</text><text fill="#000000" font-family="sans-serif" font-size="11" lengthAdjust="spacingAndGlyphs" textLength="134" x="529" y="509.4292">timesKilledLabel : Label</text><text fill="#000000" font-family="sans-serif" font-size="11" lengthAdjust="spacingAndGlyphs" textLength="143" x="529" y="522.2339">yellowAmmoLabel : Label</text><text fill="#000000" font-family="sans-serif" font-size="11" lengthAdjust="spacingAndGlyphs" textLength="127" x="529" y="535.0386">redAmmoLabel : Label</text><text fill="#000000" font-family="sans-serif" font-size="11" lengthAdjust="spacingAndGlyphs" textLength="132" x="529" y="547.8433">blueAmmoLabel : Label</text><text fill="#000000" font-family="sans-serif" font-size="11" lengthAdjust="spacingAndGlyphs" textLength="119" x="529" y="560.6479">powerupHBox : HBox</text><text fill="#000000" font-family="sans-serif" font-size="11" lengthAdjust="spacingAndGlyphs" textLength="98" x="529" y="573.4526">gunsHBox : HBox</text><text fill="#000000" font-family="sans-serif" font-size="11" lengthAdjust="spacingAndGlyphs" textLength="133" x="529" y="586.2573">thisPlayer : PlayerColor</text><text fill="#000000" font-family="sans-serif" font-size="11" lengthAdjust="spacingAndGlyphs" textLength="187" x="529" y="599.062">otherPlayers : List&lt;PlayerColor&gt;</text><text fill="#000000" font-family="sans-serif" font-size="11" lengthAdjust="spacingAndGlyphs" textLength="229" x="529" y="611.8667">dashboardCellPositions : List&lt;Position&gt;</text><text fill="#000000" font-family="sans-serif" font-size="11" lengthAdjust="spacingAndGlyphs" textLength="82" x="529" y="624.6714">view : GuiView</text><line style="stroke: #A80036; stroke-width: 1.5;" x1="524" x2="780" y1="631.2656" y2="631.2656"/><text fill="#000000" font-family="sans-serif" font-size="11" lengthAdjust="spacingAndGlyphs" textLength="53" x="529" y="645.4761">initialize()</text><text fill="#000000" font-family="sans-serif" font-size="11" lengthAdjust="spacingAndGlyphs" textLength="246" x="529" y="658.2808">initializeView(PlayerColor, LightGameModel)</text><text fill="#000000" font-family="sans-serif" font-size="11" lengthAdjust="spacingAndGlyphs" textLength="222" x="529" y="671.0854">update(PlayerDashboardUpdatedEvent)</text><!--class OtherPlayersGamePaneController--><rect fill="#FEFECE" filter="url(#fwkneyogcdta4)" height="112.0234" id="OtherPlayersGamePaneController" style="stroke: #A80036; stroke-width: 1.5;" width="451" x="36.5" y="489"/><ellipse cx="153.25" cy="505" fill="#ADD1B2" rx="11" ry="11" style="stroke: #A80036; stroke-width: 1.0;"/><path d="M156.2188,510.6406 Q155.6406,510.9375 155,511.0859 Q154.3594,511.2344 153.6563,511.2344 Q151.1563,511.2344 149.8359,509.5859 Q148.5156,507.9375 148.5156,504.8125 Q148.5156,501.6875 149.8359,500.0313 Q151.1563,498.375 153.6563,498.375 Q154.3594,498.375 155.0078,498.5313 Q155.6563,498.6875 156.2188,498.9844 L156.2188,501.7031 Q155.5938,501.125 155,500.8516 Q154.4063,500.5781 153.7813,500.5781 Q152.4375,500.5781 151.75,501.6484 Q151.0625,502.7188 151.0625,504.8125 Q151.0625,506.9063 151.75,507.9766 Q152.4375,509.0469 153.7813,509.0469 Q154.4063,509.0469 155,508.7734 Q155.5938,508.5 156.2188,507.9219 L156.2188,510.6406 Z "/><text fill="#000000" font-family="sans-serif" font-size="12" lengthAdjust="spacingAndGlyphs" textLength="209" x="173.75" y="509.1543">OtherPlayersGamePaneController</text><line style="stroke: #A80036; stroke-width: 1.5;" x1="37.5" x2="486.5" y1="521" y2="521"/><text fill="#000000" font-family="sans-serif" font-size="11" lengthAdjust="spacingAndGlyphs" textLength="140" x="42.5" y="535.2104">otherPlayersVBox : VBox</text><text fill="#000000" font-family="sans-serif" font-size="11" lengthAdjust="spacingAndGlyphs" textLength="439" x="42.5" y="548.0151">playerGamePaneControllers : Map&lt;PlayerColor, PlayerGamePaneController&gt;</text><line style="stroke: #A80036; stroke-width: 1.5;" x1="37.5" x2="486.5" y1="554.6094" y2="554.6094"/><text fill="#000000" font-family="sans-serif" font-size="11" lengthAdjust="spacingAndGlyphs" textLength="53" x="42.5" y="568.8198">initialize()</text><text fill="#000000" font-family="sans-serif" font-size="11" lengthAdjust="spacingAndGlyphs" textLength="300" x="42.5" y="581.6245">initializePlayers(List&lt;PlayerColor&gt;, LightGameModel)</text><text fill="#000000" font-family="sans-serif" font-size="11" lengthAdjust="spacingAndGlyphs" textLength="222" x="42.5" y="594.4292">update(PlayerDashboardUpdatedEvent)</text><!--class PlayerGamePaneController--><rect fill="#FEFECE" filter="url(#fwkneyogcdta4)" height="137.6328" id="PlayerGamePaneController" style="stroke: #A80036; stroke-width: 1.5;" width="373" x="75.5" y="933"/><ellipse cx="174.25" cy="949" fill="#ADD1B2" rx="11" ry="11" style="stroke: #A80036; stroke-width: 1.0;"/><path d="M177.2188,954.6406 Q176.6406,954.9375 176,955.0859 Q175.3594,955.2344 174.6563,955.2344 Q172.1563,955.2344 170.8359,953.5859 Q169.5156,951.9375 169.5156,948.8125 Q169.5156,945.6875 170.8359,944.0313 Q172.1563,942.375 174.6563,942.375 Q175.3594,942.375 176.0078,942.5313 Q176.6563,942.6875 177.2188,942.9844 L177.2188,945.7031 Q176.5938,945.125 176,944.8516 Q175.4063,944.5781 174.7813,944.5781 Q173.4375,944.5781 172.75,945.6484 Q172.0625,946.7188 172.0625,948.8125 Q172.0625,950.9063 172.75,951.9766 Q173.4375,953.0469 174.7813,953.0469 Q175.4063,953.0469 176,952.7734 Q176.5938,952.5 177.2188,951.9219 L177.2188,954.6406 Z "/><text fill="#000000" font-family="sans-serif" font-size="12" lengthAdjust="spacingAndGlyphs" textLength="167" x="194.75" y="953.1543">PlayerGamePaneController</text><line style="stroke: #A80036; stroke-width: 1.5;" x1="76.5" x2="447.5" y1="965" y2="965"/><text fill="#000000" font-family="sans-serif" font-size="11" lengthAdjust="spacingAndGlyphs" textLength="137" x="81.5" y="979.2104">playerColorLabel : Label</text><text fill="#000000" font-family="sans-serif" font-size="11" lengthAdjust="spacingAndGlyphs" textLength="141" x="81.5" y="992.0151">damagesGrid : GridPane</text><text fill="#000000" font-family="sans-serif" font-size="11" lengthAdjust="spacingAndGlyphs" textLength="124" x="81.5" y="1004.8198">marksGrid : GridPane</text><text fill="#000000" font-family="sans-serif" font-size="11" lengthAdjust="spacingAndGlyphs" textLength="107" x="81.5" y="1017.6245">pointsLabel : Label</text><text fill="#000000" font-family="sans-serif" font-size="11" lengthAdjust="spacingAndGlyphs" textLength="134" x="81.5" y="1030.4292">timesKilledLabel : Label</text><line style="stroke: #A80036; stroke-width: 1.5;" x1="76.5" x2="447.5" y1="1037.0234" y2="1037.0234"/><text fill="#000000" font-family="sans-serif" font-size="11" lengthAdjust="spacingAndGlyphs" textLength="255" x="81.5" y="1051.2339">initializePlayer(PlayerColor, LightGameModel)</text><text fill="#000000" font-family="sans-serif" font-size="11" lengthAdjust="spacingAndGlyphs" textLength="361" x="81.5" y="1064.0386">updatePlayerInfo(List&lt;PlayerColor&gt;, List&lt;PlayerColor&gt;, int, int)</text><!--class StartGuiController--><rect fill="#FEFECE" filter="url(#fwkneyogcdta4)" height="73.6094" id="StartGuiController" style="stroke: #A80036; stroke-width: 1.5;" width="220" x="22" y="113"/><ellipse cx="71.75" cy="129" fill="#ADD1B2" rx="11" ry="11" style="stroke: #A80036; stroke-width: 1.0;"/><path d="M74.7188,134.6406 Q74.1406,134.9375 73.5,135.0859 Q72.8594,135.2344 72.1563,135.2344 Q69.6563,135.2344 68.3359,133.5859 Q67.0156,131.9375 67.0156,128.8125 Q67.0156,125.6875 68.3359,124.0313 Q69.6563,122.375 72.1563,122.375 Q72.8594,122.375 73.5078,122.5313 Q74.1563,122.6875 74.7188,122.9844 L74.7188,125.7031 Q74.0938,125.125 73.5,124.8516 Q72.9063,124.5781 72.2813,124.5781 Q70.9375,124.5781 70.25,125.6484 Q69.5625,126.7188 69.5625,128.8125 Q69.5625,130.9063 70.25,131.9766 Q70.9375,133.0469 72.2813,133.0469 Q72.9063,133.0469 73.5,132.7734 Q74.0938,132.5 74.7188,131.9219 L74.7188,134.6406 Z "/><text fill="#000000" font-family="sans-serif" font-size="12" lengthAdjust="spacingAndGlyphs" textLength="112" x="92.25" y="133.1543">StartGuiController</text><line style="stroke: #A80036; stroke-width: 1.5;" x1="23" x2="241" y1="145" y2="145"/><text fill="#000000" font-family="sans-serif" font-size="11" lengthAdjust="spacingAndGlyphs" textLength="113" x="28" y="159.2104">startButton : Button</text><line style="stroke: #A80036; stroke-width: 1.5;" x1="23" x2="241" y1="165.8047" y2="165.8047"/><text fill="#000000" font-family="sans-serif" font-size="11" lengthAdjust="spacingAndGlyphs" textLength="208" x="28" y="180.0151">changeSceneRmiSocket(ActionEvent)</text><!--link ConnectMatchController to GuiView--><path d="M1133.3821,236.0898 C1149.0966,251.3809 1163.3348,268.4282 1174,287 C1260.6549,437.8958 1263.3249,651.2303 1258.5234,754.8133 " fill="none" id="ConnectMatchController-GuiView" style="stroke: #A80036; stroke-width: 1.0;"/><polygon fill="#A80036" points="1258.2742,759.9647,1262.7046,751.1686,1258.5159,754.9705,1254.714,750.7819,1258.2742,759.9647" style="stroke: #A80036; stroke-width: 1.0;"/><text fill="#000000" font-family="sans-serif" font-size="13" lengthAdjust="spacingAndGlyphs" textLength="27" x="1215" y="378.0669">view</text><!--link MainGamePaneController to DashboardGamePaneController--><path d="M563.2164,231.6324 C632.559,282.1382 722.2094,349.1322 799,412 C807.9358,419.3157 817.0946,426.941 826.2722,434.6764 " fill="none" id="MainGamePaneController-DashboardGamePaneController" style="stroke: #A80036; stroke-width: 1.0;"/><polygon fill="#A80036" points="830.2061,437.9978,825.9098,429.1354,826.3857,434.7722,820.7489,435.2481,830.2061,437.9978" style="stroke: #A80036; stroke-width: 1.0;"/><text fill="#000000" font-family="sans-serif" font-size="13" lengthAdjust="spacingAndGlyphs" textLength="130" x="700" y="331.0669">dashboardController</text><!--link MainGamePaneController to GuiView--><path d="M585.7605,231.6076 C603.3898,240.7577 621.4247,249.4766 639,257 C839.6563,342.8938 949.6119,258.7184 1105,412 C1154.7858,461.1108 1211.384,654.218 1238.2463,754.6184 " fill="none" id="MainGamePaneController-GuiView" style="stroke: #A80036; stroke-width: 1.0;"/><polygon fill="#A80036" points="1239.5812,759.6228,1241.1263,749.8959,1238.2925,754.7917,1233.3966,751.9579,1239.5812,759.6228" style="stroke: #A80036; stroke-width: 1.0;"/><text fill="#000000" font-family="sans-serif" font-size="13" lengthAdjust="spacingAndGlyphs" textLength="27" x="1070" y="378.0669">view</text><!--link MainGamePaneController to MyStatusGamePaneController--><path d="M491.0617,231.8443 C517.0941,282.4983 551.1805,348.8241 581.2787,407.3896 " fill="none" id="MainGamePaneController-MyStatusGamePaneController" style="stroke: #A80036; stroke-width: 1.0;"/><polygon fill="#A80036" points="583.6228,411.9507,583.0666,402.1176,581.3373,407.5036,575.9513,405.7743,583.6228,411.9507" style="stroke: #A80036; stroke-width: 1.0;"/><text fill="#000000" font-family="sans-serif" font-size="13" lengthAdjust="spacingAndGlyphs" textLength="124" x="544" y="331.0669">thisPlayerController</text><!--link MainGamePaneController to OtherPlayersGamePaneController--><path d="M410.2535,231.8443 C374.733,306.8742 322.9344,416.2883 290.9085,483.9365 " fill="none" id="MainGamePaneController-OtherPlayersGamePaneController" style="stroke: #A80036; stroke-width: 1.0;"/><polygon fill="#A80036" points="288.6373,488.734,296.1035,482.311,290.7767,484.2148,288.8728,478.888,288.6373,488.734" style="stroke: #A80036; stroke-width: 1.0;"/><text fill="#000000" font-family="sans-serif" font-size="13" lengthAdjust="spacingAndGlyphs" textLength="142" x="369" y="331.0669">otherPlayersController</text><!--link MyStatusGamePaneController to GuiView--><path d="M781.0762,668.3752 C786.9654,671.8685 792.9482,675.0991 799,678 C918.3256,735.1972 962.1642,705.198 1093,725 C1117.8585,728.7623 1125.8963,723.0845 1149,733 C1163.1006,739.0516 1176.9132,747.5039 1189.6482,756.7156 " fill="none" id="MyStatusGamePaneController-GuiView" style="stroke: #A80036; stroke-width: 1.0;"/><polygon fill="#A80036" points="1193.9246,759.8664,1189.0516,751.3076,1189.8992,756.9006,1184.3062,757.7482,1193.9246,759.8664" style="stroke: #A80036; stroke-width: 1.0;"/><text fill="#000000" font-family="sans-serif" font-size="13" lengthAdjust="spacingAndGlyphs" textLength="27" x="1094" y="721.0669">view</text><!--link OtherPlayersGamePaneController to PlayerGamePaneController--><path d="M262,601.0372 C262,683.1437 262,836.2775 262,927.6912 " fill="none" id="OtherPlayersGamePaneController-PlayerGamePaneController" style="stroke: #A80036; stroke-width: 1.0;"/><polygon fill="#A80036" points="262,932.8088,266,923.8088,262,927.8088,258,923.8088,262,932.8088" style="stroke: #A80036; stroke-width: 1.0;"/><text fill="#000000" font-family="sans-serif" font-size="13" lengthAdjust="spacingAndGlyphs" textLength="179" x="263" y="820.5669">playerGamePaneControllers</text><!--
@startuml

package com.adrenalinici.adrenaline.gui <<Folder>> {
  class "GuiUtils"
  class "GuiView"
}

package com.adrenalinici.adrenaline.gui.controller <<Folder>> {
  class "ConnectMatchController"
  class "DashboardCellController"
  class "DashboardGamePaneController"
  class "MainGamePaneController"
  class "MyStatusGamePaneController"
  class "OtherPlayersGamePaneController"
  class "PlayerGamePaneController"
  class "StartGuiController"
}

class "ConnectMatchController" {
  portText : TextField
  hostText : TextField
  socketButton : Button
  rmiButton : Button
  matchesListView : ListView<String>
  newMatchButton : Button
  view : GuiView
  matches : Map<String, Set<PlayerColor>>
  registeredHandler : String
  startingNewMatch : Boolean
  initialize()
  onConnectClicked(MouseEvent)
  onStartNewMatchClicked(MouseEvent)
}

class "DashboardCellController" {
  position : Label
  players : HBox
  content : Label
  initialize()
}

class "DashboardGamePaneController" {
  dashboardGridPane : GridPane
  remainingSkullsLabel : Label
  playerTurnLabel : Label
  frenzyModeLabel : Label
  playersKillTrackHBox : HBox
  cellControllers : DashboardCellController[][]
  initialize()
  initializeView(DashboardChoice)
  initializeView(LightGameModel, PlayerColor)
  showGameInfo(LightGameModel)
  updateCell(DashboardCellUpdatedEvent)
  updateGameModel(GameModelUpdatedEvent)
  updateTurnOfPlayer(PlayerColor)
}

class "GuiUtils"

class "GuiView" {
  eventBus : ViewEventBus
  networkAdapterThread : Thread
  adapter : ClientNetworkAdapter
  startNetworkAdapter()
  stopNetworkAdapter()
}

class "MainGamePaneController" {
  dashboardController : DashboardGamePaneController
  thisPlayerController : MyStatusGamePaneController
  otherPlayersController : OtherPlayersGamePaneController
  view : GuiView
  registeredHandler : String
  firstUpdate : boolean
  openedDialog : Dialog
  initialize()
  start()
}

class "MyStatusGamePaneController" {
  playerColorLabel : Label
  damagesGrid : GridPane
  marksGrid : GridPane
  pointsLabel : Label
  timesKilledLabel : Label
  yellowAmmoLabel : Label
  redAmmoLabel : Label
  blueAmmoLabel : Label
  powerupHBox : HBox
  gunsHBox : HBox
  thisPlayer : PlayerColor
  otherPlayers : List<PlayerColor>
  dashboardCellPositions : List<Position>
  view : GuiView
  initialize()
  initializeView(PlayerColor, LightGameModel)
  update(PlayerDashboardUpdatedEvent)
}

class "OtherPlayersGamePaneController" {
  otherPlayersVBox : VBox
  playerGamePaneControllers : Map<PlayerColor, PlayerGamePaneController>
  initialize()
  initializePlayers(List<PlayerColor>, LightGameModel)
  update(PlayerDashboardUpdatedEvent)
}

class "PlayerGamePaneController" {
  playerColorLabel : Label
  damagesGrid : GridPane
  marksGrid : GridPane
  pointsLabel : Label
  timesKilledLabel : Label
  initializePlayer(PlayerColor, LightGameModel)
  updatePlayerInfo(List<PlayerColor>, List<PlayerColor>, int, int)
}

class "StartGuiController" {
  startButton : Button
  changeSceneRmiSocket(ActionEvent)
}

"ConnectMatchController" - -> "GuiView" : view
"MainGamePaneController" - -> "DashboardGamePaneController" : dashboardController
"MainGamePaneController" - -> "GuiView" : view
"MainGamePaneController" - -> "MyStatusGamePaneController" : thisPlayerController
"MainGamePaneController" - -> "OtherPlayersGamePaneController" : otherPlayersController
"MyStatusGamePaneController" - -> "GuiView" : view
"OtherPlayersGamePaneController" - -> "PlayerGamePaneController" : playerGamePaneControllers

@enduml

PlantUML version 1.2019.06(Fri May 24 19:10:25 CEST 2019)
(GPL source distribution)
Java Runtime: OpenJDK Runtime Environment
JVM: OpenJDK 64-Bit Server VM
Java Version: 1.8.0_212-b04
Operating System: Linux
OS Version: 5.1.9-300.fc30.x86_64
Default Encoding: UTF-8
Language: en
Country: US
--></g></svg>